#!OML:ASF I:\Actors\actors\Patient Classification 1\Patient 1\Session 1\Subject1.ASF
:FULLY-SPECIFIED
:DEGREES
1066
root 0.870691 16.7908 8.60438 77.5839 56.7846 -7.81533
lowerback 27.7208 1.60984 -2.12419
upperback 3.33912 0.966885 -4.43784
thorax -11.613 0.455944 -4.20219
lowerneck 0.0697613 -0.967045 0.22393
upperneck -23.6296 -0.224483 3.64303
head -7.22545 -0.210497 1.13857
rclavicle 1.03368e-013 4.37326e-014
rhumerus -41.9586 27.4776 -79.7673
rradius 144.598
rwrist -63.0935
rhand 42.2002 -51.528
rfingers 7.12502
rthumb 64.1921 -59.9951
lclavicle 1.03368e-013 4.37326e-014
lhumerus -40.7176 -11.7094 84.8547
lradius 146.999
lwrist 50.9381
lhand 70.8304 -22.8632
lfingers 7.12502
lthumb 73.2955 93.4902
rfemur -78.2413 16.7219 -8.34862
rtibia 0.959415
rfoot -88.9513 -57.512
rtoes 49.7727
lfemur -94.632 10.4889 -26.0468
ltibia 1.36233
lfoot 35.8057 -36.4242
ltoes 41.8198
1067
root 0.86711 16.7957 8.60007 77.0523 56.8569 -7.78606
lowerback 27.7987 1.60306 -1.96959
upperback 3.2032 0.997827 -4.37759
thorax -11.808 0.459551 -4.24421
lowerneck -1.34807 -0.907983 -0.102026
upperneck -21.4026 -0.230334 3.85186
head -6.25223 -0.188011 1.23818
rclavicle 5.04913e-014 4.76586e-014
rhumerus -40.8936 27.3756 -78.7152
rradius 144.836
rwrist -63.2243
rhand 42.6407 -50.8682
rfingers 7.12502
rthumb 64.5448 -58.7852
lclavicle 5.04913e-014 4.76586e-014
lhumerus -39.9503 -12.0382 85.258
lradius 147.1
lwrist 49.4916
lhand 69.0679 -23.0108
lfingers 7.12502
lthumb 73.981 271.897
rfemur -77.6194 17.0392 -7.99793
rtibia 0.874993
rfoot -88.784 -57.5074
rtoes 49.784
lfemur -94.0959 10.4354 -26.3273
ltibia 1.31947
lfoot 35.8245 -37.2178
ltoes 40.9576
1068
root 0.864319 16.8012 8.60067 76.7753 56.871 -7.51714
lowerback 27.8063 1.38401 -1.77784
upperback 3.08185 0.761306 -4.46954
thorax -11.9629 0.339379 -4.38125
lowerneck -2.45868 -0.871101 0.0644948
upperneck -19.4169 -0.280818 3.82876
head -5.43519 -0.21239 1.18704
rclavicle 1.25234e-014 -5.35725e-014
rhumerus -39.4236 26.25 -78.2835
rradius 145.272
rwrist -63.264
rhand 43.4613 -50.7267
rfingers 7.12502
rthumb 65.1948 -57.5759
lclavicle 1.25234e-014 -5.35725e-014
lhumerus -39.1848 -11.1583 85.4211
lradius 147.532
lwrist 50.4002
lhand 71.4175 -19.6061
lfingers 7.12502
lthumb 73.0335 91.9696
rfemur -76.9726 17.2106 -7.73536
rtibia 0.780887
rfoot -88.6659 -57.3145
rtoes 49.8134
lfemur -93.5489 10.2773 -26.5269
ltibia 1.2563
lfoot 35.8638 -37.6545
ltoes 40.4626
1069
root 0.865462 16.8092 8.60787 76.555 56.9098 -7.11498
lowerback 27.8933 1.31278 -1.81861
upperback 3.02713 0.6593 -4.43463
thorax -12.0794 0.295737 -4.28618
lowerneck -3.77657 -0.893761 0.402921
upperneck -16.5641 -0.501912 3.5105
head -4.8395 -0.297577 1.1327
rclavicle 1.15295e-014 7.14631e-014
rhumerus -37.9523 23.8825 -78.4506
rradius 146.034
rwrist -63.1199
rhand 44.5598 -50.7674
rfingers 7.12502
rthumb 66.0496 -56.094
lclavicle 1.15295e-014 7.14631e-014
lhumerus -38.3955 -9.8675 86.4191
lradius 147.928
lwrist 51.8573
lhand 72.9405 -16.3239
lfingers 7.12502
lthumb 72.2833 92.9343
rfemur -76.1797 17.3396 -7.43824
rtibia 0.636589
rfoot -88.5217 -57.1729
rtoes 49.7267
lfemur -92.8328 10.014 -26.4068
ltibia 1.13557
lfoot 35.4567 -38.0022
ltoes 39.7852
1070
root 0.869531 16.8164 8.60114 76.0207 57.2079 -7.2164
lowerback 27.919 0.97272 -1.36034
upperback 2.9472 0.365963 -4.39658
thorax -12.2006 0.140527 -4.40441
lowerneck -5.58649 -0.664599 -0.66634
upperneck -13.0244 -0.293187 3.9841
head -3.22109 -0.129611 1.41152
rclavicle 2.20651e-014 -1.0307e-013
rhumerus -36.0354 21.9106 -80.8463
rradius 146.016
rwrist -61.7748
rhand 46.1435 -51.1268
rfingers 7.12502
rthumb 67.2474 -54.0525
lclavicle 2.20651e-014 -1.0307e-013
lhumerus -37.8924 -8.03792 88.0726
lradius 148.168
lwrist 52.5621
lhand 70.23 -15.9657
lfingers 7.12502
lthumb 73.5465 -84.7605
rfemur -75.608 17.5829 -6.88255
rtibia 0.523509
rfoot -88.3471 -57.123
rtoes 49.6236
lfemur -92.3557 9.79738 -26.024
ltibia 1.13427
lfoot 34.3004 -38.9818
ltoes 37.8579
1071
root 0.875134 16.8262 8.60453 75.4444 57.3229 -7.15479
lowerback 28.186 0.854482 -1.28151
upperback 2.91413 0.241912 -4.30228
thorax -12.3874 0.0817221 -4.30666
lowerneck -6.27653 -0.66096 -0.554099
upperneck -10.498 -0.454559 3.5859
head -2.23615 -0.201628 1.22824
rclavicle -2.65378e-014 -5.18207e-014
rhumerus -34.9077 20.1404 -84.3605
rradius 145.802
rwrist -62.1465
rhand 46.1157 -53.3308
rfingers 7.12502
rthumb 67.2267 -56.301
lclavicle -2.65378e-014 -5.18207e-014
lhumerus -37.5201 -6.95479 90.826
lradius 147.965
lwrist 52.3995
lhand 71.4342 -13.7087
lfingers 7.12502
lthumb 73.0258 -86.1209
rfemur -74.8304 17.8607 -6.4656
rtibia 0.405902
rfoot -88.1754 -57.0819
rtoes 49.6105
lfemur -91.6106 9.59954 -25.8043
ltibia 1.08048
lfoot 33.2711 -39.793
ltoes 36.2023
1072
root 0.882245 16.8398 8.62392 75.0775 57.1983 -6.58345
lowerback 28.8072 0.848573 -1.60385
upperback 3.00258 0.135335 -4.21477
thorax -12.617 0.0550146 -3.9967
lowerneck -6.36115 -0.768495 -0.692258
upperneck -8.73344 -0.696394 3.35439
head -1.6404 -0.318075 1.15924
rclavicle -2.76808e-014 2.15278e-014
rhumerus -33.7861 17.6008 -88.207
rradius 145.53
rwrist -62.3864
rhand 45.5498 -56.5011
rfingers 7.12502
rthumb 66.8035 -60.3567
lclavicle -2.76808e-014 2.15278e-014
lhumerus -37.1414 -6.6996 93.9678
lradius 147.207
lwrist 52.1409
lhand 71.7723 -14.2466
lfingers 7.12502
lthumb 72.8676 -87.6328
rfemur -73.7055 18.0461 -6.25654
rtibia 0.2729
rfoot -88.0485 -56.9259
rtoes 49.6076
lfemur -90.4786 9.27471 -25.8381
ltibia 0.884057
lfoot 32.7573 -40.2564
ltoes 35.334
1073
root 0.883726 16.8479 8.65498 74.0923 57.026 -6.75516
lowerback 29.3683 1.11757 -2.12291
upperback 3.19998 0.32482 -4.07163
thorax -12.6693 0.174222 -3.6141
lowerneck -5.84159 -0.947563 -0.888439
upperneck -8.07377 -0.978914 3.19067
head -1.50976 -0.463138 1.1369
rclavicle 8.21478e-014 1.23501e-013
rhumerus -32.644 14.8472 -92.3711
rradius 145.149
rwrist -62.8059
rhand 44.4368 -60.2117
rfingers 7.12502
rthumb 65.9548 -65.7143
lclavicle 8.21478e-014 1.23501e-013
lhumerus -36.9274 -7.3075 96.7027
lradius 146.079
lwrist 53.1689
lhand 71.7486 -14.6643
lfingers 7.12502
lthumb 72.8789 -87.9827
rfemur -72.8177 18.7234 -5.99364
rtibia 0.19446
rfoot -87.9487 -56.7732
rtoes 49.4045
lfemur -89.4154 9.56352 -25.7827
ltibia 0.687631
lfoot 32.3379 -40.5911
ltoes 34.539
1074
root 0.885773 16.854 8.6658 73.2514 57.137 -6.97929
lowerback 29.9109 1.30202 -2.06773
upperback 3.04442 0.573579 -4.05965
thorax -12.3332 0.328755 -3.46028
lowerneck -5.27491 -1.11294 -1.21264
upperneck -7.71928 -1.21546 3.18716
head -1.4855 -0.583081 1.19136
rclavicle 9.323e-014 1.16016e-013
rhumerus -32.1256 12.3145 -95.919
rradius 145.129
rwrist -63.7673
rhand 43.2469 -63.856
rfingers 7.12502
rthumb 65.0259 -70.9897
lclavicle 9.323e-014 1.16016e-013
lhumerus -37.2587 -8.82839 98.6709
lradius 144.981
lwrist 55.6144
lhand 71.7409 -14.1191
lfingers 7.12502
lthumb 72.8825 -87.4157
rfemur -72.1021 19.2114 -5.50745
rtibia 0.110913
rfoot -87.8258 -56.7439
rtoes 49.1532
lfemur -88.6726 9.63142 -25.5096
ltibia 0.610585
lfoot 31.4684 -41.2024
ltoes 32.835
1075
root 0.884174 16.8569 8.66039 72.9244 57.496 -6.95935
lowerback 30.1195 1.32785 -1.56457
upperback 3.27258 0.790197 -3.91234
thorax -12.1551 0.408023 -3.65387
lowerneck -4.71933 -1.24075 -1.12392
upperneck -7.68357 -1.42461 2.80897
head -1.56486 -0.694102 1.06096
rclavicle -1.17084e-013 -7.2954e-014
rhumerus -32.3013 10.5335 -98.5687
rradius 145.47
rwrist -65.2158
rhand 41.9919 -66.959
rfingers 7.12502
rthumb 64.0244 -75.6808
lclavicle -1.17084e-013 -7.2954e-014
lhumerus -38.0761 -10.7763 99.6924
lradius 144.149
lwrist 58.4561
lhand 71.6054 -13.5184
lfingers 7.12502
lthumb 72.9464 -86.4261
rfemur -71.6449 19.2922 -4.91782
rtibia 0.0843186
rfoot -87.6492 -56.7004
rtoes 49.0451
lfemur -88.3793 9.28988 -25.1299
ltibia 0.684467
lfoot 30.2776 -42.0232
ltoes 30.4432
1076
root 0.878434 16.8559 8.67012 72.6166 57.7254 -7.00771
lowerback 30.3818 1.3178 -1.41258
upperback 3.50195 0.856375 -3.72747
thorax -12.0053 0.439265 -3.56109
lowerneck -3.99936 -1.3021 -1.04636
upperneck -8.24018 -1.53014 2.38032
head -1.86688 -0.749575 0.926068
rclavicle -3.04141e-014 -3.83903e-014
rhumerus -32.3814 9.68962 -100.471
rradius 145.426
rwrist -65.7872
rhand 40.7743 -68.603
rfingers 7.12502
rthumb 63.0339 -78.7471
lclavicle -3.04141e-014 -3.83903e-014
lhumerus -39.0593 -12.1532 99.6537
lradius 143.585
lwrist 60.4394
lhand 70.77 -13.6462
lfingers 7.12502
lthumb 73.3215 -84.0916
rfemur -71.2965 19.4422 -4.46175
rtibia 0.0769184
rfoot -87.4202 -56.6668
rtoes 48.995
lfemur -88.1382 9.17957 -24.8371
ltibia 0.746292
lfoot 29.3713 -42.5844
ltoes 28.6863
